# xmcd
#
# Track frame offsets: 
#        150
#        19085
#        42673
#        70438
#        88720
#        104995
#        126768
#        145333
#        168350
#        179613
#
# Disc length: 2599 seconds
#
# Revision: 8
# Processed by: cddbd v1.5.2PL0 Copyright (c) Steve Scherf et al.
# Submitted via: ExactAudioCopyFreeDBPlugin 1.0
#
DISCID=990a250a
DTITLE=George Thorogood and The Destroyers - Haircut
DYEAR=1993
DGENRE=Blues
TTITLE0=Get A Haircut
TTITLE1=Howlin' For My Baby
TTITLE2=Killer's Bluze
TTITLE3=Down In The Bottom
TTITLE4=I'm Ready
TTITLE5=Cops And Robbers
TTITLE6=Gone Dead Train
TTITLE7=Want Ad Blues
TTITLE8=My Friend Robert
TTITLE9=Baby Don't Go
EXTD=YEAR: 1993 ID3G: 17
EXTT0=
EXTT1=
EXTT2=
EXTT3=
EXTT4=
EXTT5=
EXTT6=
EXTT7=
EXTT8=
EXTT9=
PLAYORDER=
